<?xml version="1.0" encoding="UTF-8" standalone="no"?>
<!-- Created with Inkscape (http://www.inkscape.org/) -->

<svg
   width="100mm"
   height="198.11897mm"
   viewBox="0 0 100 198.11897"
   version="1.1"
   id="svg1"
   inkscape:export-filename="player-forward.svg"
   inkscape:export-xdpi="96"
   inkscape:export-ydpi="96"
   sodipodi:docname="side.svg"
   xmlns:inkscape="http://www.inkscape.org/namespaces/inkscape"
   xmlns:sodipodi="http://sodipodi.sourceforge.net/DTD/sodipodi-0.dtd"
   xmlns="http://www.w3.org/2000/svg"
   xmlns:svg="http://www.w3.org/2000/svg"
   xmlns:rdf="http://www.w3.org/1999/02/22-rdf-syntax-ns#"
   xmlns:cc="http://creativecommons.org/ns#"
   xmlns:dc="http://purl.org/dc/elements/1.1/">
  <defs
     id="defs1" />
  <sodipodi:namedview
     id="base"
     pagecolor="#ffffff"
     bordercolor="#000000"
     borderopacity="0.3"
     inkscape:pageopacity="0.0"
     inkscape:pageshadow="2"
     inkscape:zoom="0.35"
     inkscape:cx="400"
     inkscape:cy="560"
     inkscape:document-units="mm"
     inkscape:showpageshadow="2"
     inkscape:pagecheckerboard="0"
     inkscape:deskcolor="#d1d1d1" />
  <metadata
     id="metadata1">
    <rdf:RDF>
      <cc:Work
         rdf:about="">
        <dc:format>image/svg+xml</dc:format>
        <dc:type
           rdf:resource="http://purl.org/dc/dcmitype/StillImage" />
      </cc:Work>
    </rdf:RDF>
  </metadata>
  <rect
     style="fill:#9d8575;fill-opacity:1;fill-rule:evenodd;stroke:none;stroke-width:1.5;stroke-linecap:round;stroke-linejoin:round;stroke-opacity:1;paint-order:fill markers stroke"
     id="rect6-0-1"
     width="15.173752"
     height="48.998512"
     x="59.707184"
     y="149.12047"
     ry="7.6540179"
     inkscape:label="leg" />
  <rect
     style="fill:#9d8575;fill-opacity:1;fill-rule:evenodd;stroke:none;stroke-width:1.5;stroke-linecap:round;stroke-linejoin:round;stroke-opacity:1;paint-order:fill markers stroke"
     id="rect9"
     width="15.173752"
     height="48.998512"
     x="-40.292809"
     y="149.12047"
     ry="7.6540179"
     inkscape:label="leg"
     transform="scale(-1,1)" />
  <rect
     style="fill:#ffd8be;fill-opacity:1;fill-rule:evenodd;stroke:none;stroke-width:1.5;stroke-linecap:round;stroke-linejoin:round;stroke-opacity:1;paint-order:fill markers stroke"
     id="rect2"
     width="16.499756"
     height="8.869422"
     x="41.750118"
     y="43.684265"
     inkscape:label="neck" />
  <path
     id="path2"
     style="fill:#ffd8be;fill-opacity:1;fill-rule:evenodd;stroke-width:1.5;stroke-linecap:round;stroke-linejoin:round;paint-order:fill markers stroke"
     inkscape:label="head"
     d="m 30.038472,11.559501 a 23.118814,23.118814 0 0 0 -3.15743,11.561052 23.118814,23.118814 0 0 0 23.119519,23.117452 23.118814,23.118814 0 0 0 23.118485,-23.119003 v -0.0026 a 23.118814,23.118814 0 0 0 -3.15743,-11.556918 z" />
  <path
     id="rect3"
     style="fill:#180918;fill-rule:evenodd;stroke-width:1.5;stroke-linecap:round;stroke-linejoin:round;paint-order:fill markers stroke"
     inkscape:label="body"
     d="m 41.750418,46.238005 c -11.642901,0 -21.016288,7.628618 -21.016288,17.104899 0,19.523145 4.066308,39.336866 0,58.569556 h 21.74906 7.516854 29.265914 c -4.066308,-19.23269 0,-39.046411 0,-58.569556 0,-9.476281 -9.373387,-17.104899 -21.016289,-17.104899 h -8.249625 -4.124813 z" />
  <path
     style="fill:#000000;fill-opacity:1;fill-rule:evenodd;stroke:none;stroke-width:1.64663;stroke-linecap:round;stroke-linejoin:round;stroke-opacity:1;paint-order:fill markers stroke"
     d="M 20.733986,121.91265 0,166.58165 h 100 l -20.733993,-44.669 H 20.733986"
     id="path5"
     sodipodi:nodetypes="ccccc"
     inkscape:label="skirt" />
  <path
     id="rect4"
     style="display:inline;fill:#000000;fill-opacity:1;fill-rule:evenodd;stroke-width:1.5;stroke-linecap:round;stroke-linejoin:round;paint-order:fill markers stroke"
     inkscape:label="hair"
     d="M 49.997977,-1.0031296e-8 C 41.759089,0.02064729 34.153734,4.4243589 30.034337,11.559501 h 0.0041 c -1.348008,2.337107 -2.276521,4.892133 -2.743502,7.54941 3.075422,-5.508269 8.686916,-7.54941 15.005285,-7.54941 h 15.395443 c 6.31837,0 11.929864,2.041141 15.005286,7.54941 -0.466981,-2.657277 -1.395494,-5.212303 -2.743502,-7.54941 h 0.0041 C 65.842219,4.4243589 58.236865,0.02064729 49.997977,-1.0031296e-8 Z"
     sodipodi:nodetypes="ccccsscccc" />
</svg>
