<?xml version="1.0" encoding="UTF-8" standalone="no"?>
<!-- Created with Inkscape (http://www.inkscape.org/) -->

<svg
   width="100mm"
   height="166.58163mm"
   viewBox="0 0 100 166.58163"
   version="1.1"
   id="svg1"
   inkscape:export-filename="..\player\player-side.svg"
   inkscape:export-xdpi="96"
   inkscape:export-ydpi="96"
   sodipodi:docname="player-left.svg"
   inkscape:version="1.3.2 (091e20e, 2023-11-25, custom)"
   xmlns:inkscape="http://www.inkscape.org/namespaces/inkscape"
   xmlns:sodipodi="http://sodipodi.sourceforge.net/DTD/sodipodi-0.dtd"
   xmlns="http://www.w3.org/2000/svg"
   xmlns:svg="http://www.w3.org/2000/svg"
   xmlns:rdf="http://www.w3.org/1999/02/22-rdf-syntax-ns#"
   xmlns:cc="http://creativecommons.org/ns#"
   xmlns:dc="http://purl.org/dc/elements/1.1/">
  <defs
     id="defs1" />
  <sodipodi:namedview
     id="base"
     pagecolor="#ffffff"
     bordercolor="#000000"
     borderopacity="0.3"
     inkscape:pageopacity="0.0"
     inkscape:pageshadow="2"
     inkscape:zoom="0.98994949"
     inkscape:cx="-10.101525"
     inkscape:cy="355.5737"
     inkscape:document-units="mm"
     inkscape:showpageshadow="2"
     inkscape:pagecheckerboard="0"
     inkscape:deskcolor="#d1d1d1"
     inkscape:window-width="1920"
     inkscape:window-height="1010"
     inkscape:window-x="4914"
     inkscape:window-y="1074"
     inkscape:window-maximized="1"
     inkscape:current-layer="svg1" />
  <metadata
     id="metadata1">
    <rdf:RDF>
      <cc:Work
         rdf:about="">
        <dc:format>image/svg+xml</dc:format>
        <dc:type
           rdf:resource="http://purl.org/dc/dcmitype/StillImage" />
      </cc:Work>
    </rdf:RDF>
  </metadata>
  <rect
     style="fill:#ffd8be;fill-opacity:1;fill-rule:evenodd;stroke:none;stroke-width:1.5;stroke-linecap:round;stroke-linejoin:round;stroke-opacity:1;paint-order:fill markers stroke"
     id="rect2"
     width="16.499756"
     height="8.869422"
     x="-58.249882"
     y="43.684265"
     inkscape:label="neck"
     transform="scale(-1,1)" />
  <path
     id="path1"
     style="fill:#ffd8be;fill-opacity:1;fill-rule:evenodd;stroke:none;stroke-width:1.5;stroke-linecap:round;stroke-linejoin:round;stroke-opacity:1;paint-order:fill markers stroke"
     inkscape:label="head"
     d="m 37.410027,14.35933 c 18.659197,0 25.674369,2.270853 34.154504,16.928683 C 68.174578,40.263257 59.593506,46.212082 49.999439,46.238005 37.231325,46.237823 26.88085,35.887116 26.880954,23.119002 v -0.0026 c 0.01645,-3.006653 0.619226,-5.981227 1.774569,-8.757089 z"
     sodipodi:nodetypes="sccsscs" />
  <path
     id="rect3"
     style="fill:#180918;fill-rule:evenodd;stroke-width:1.5;stroke-linecap:round;stroke-linejoin:round;paint-order:fill markers stroke"
     inkscape:label="body"
     d="m 58.249582,46.238005 c 11.642901,0 21.016288,7.628618 21.016288,17.104899 0,19.523145 -4.066164,39.337056 1.44e-4,58.569746 H 20.733993 c 4.066308,-19.23269 4.9e-5,-39.046601 4.9e-5,-58.569746 0,-9.476281 9.373387,-17.104899 21.016289,-17.104899 z"
     sodipodi:nodetypes="ssccsss" />
  <path
     style="fill:#000000;fill-opacity:1;fill-rule:evenodd;stroke:none;stroke-width:1.64663;stroke-linecap:round;stroke-linejoin:round;stroke-opacity:1;paint-order:fill markers stroke"
     d="M 79.266014,121.91265 100,166.58165 H 0 l 20.733993,-44.669 h 58.532021"
     id="path5"
     sodipodi:nodetypes="ccccc"
     inkscape:label="skirt" />
  <path
     id="path6"
     style="display:inline;fill:#000000;fill-opacity:1;fill-rule:evenodd;stroke:none;stroke-width:1.5;stroke-linecap:round;stroke-linejoin:round;stroke-opacity:1;paint-order:fill markers stroke"
     d="m 49.942202,0 c 5.973742,0 7.272249,0.9478492 9.873817,2.2153685 C 113.41904,28.331486 83.264784,61.610184 85.664549,85.808172 79.056926,78.812141 81.285368,48.121945 71.603289,31.352092 63.105605,16.633671 56.097748,14.359097 37.409911,14.359097 l -8.754388,2.16e-4 C 32.274166,5.0179041 41.701943,0 49.940135,0 Z"
     inkscape:label="Hair"
     sodipodi:nodetypes="sscsccss" />
</svg>
