<?xml version="1.0" encoding="UTF-8" standalone="no"?>
<!-- Created with Inkscape (http://www.inkscape.org/) -->

<svg
   width="100mm"
   height="198.11897mm"
   viewBox="0 0 100 198.11897"
   version="1.1"
   id="svg1"
   inkscape:export-filename="..\player\player-side.svg"
   inkscape:export-xdpi="96"
   inkscape:export-ydpi="96"
   sodipodi:docname="side.svg"
   xmlns:inkscape="http://www.inkscape.org/namespaces/inkscape"
   xmlns:sodipodi="http://sodipodi.sourceforge.net/DTD/sodipodi-0.dtd"
   xmlns="http://www.w3.org/2000/svg"
   xmlns:svg="http://www.w3.org/2000/svg"
   xmlns:rdf="http://www.w3.org/1999/02/22-rdf-syntax-ns#"
   xmlns:cc="http://creativecommons.org/ns#"
   xmlns:dc="http://purl.org/dc/elements/1.1/">
  <defs
     id="defs1" />
  <sodipodi:namedview
     id="base"
     pagecolor="#ffffff"
     bordercolor="#000000"
     borderopacity="0.3"
     inkscape:pageopacity="0.0"
     inkscape:pageshadow="2"
     inkscape:zoom="0.35"
     inkscape:cx="400"
     inkscape:cy="560"
     inkscape:document-units="mm"
     inkscape:showpageshadow="2"
     inkscape:pagecheckerboard="0"
     inkscape:deskcolor="#d1d1d1" />
  <metadata
     id="metadata1">
    <rdf:RDF>
      <cc:Work
         rdf:about="">
        <dc:format>image/svg+xml</dc:format>
        <dc:type
           rdf:resource="http://purl.org/dc/dcmitype/StillImage" />
      </cc:Work>
    </rdf:RDF>
  </metadata>
  <rect
     style="fill:#9d8575;fill-opacity:1;fill-rule:evenodd;stroke:none;stroke-width:1.5;stroke-linecap:round;stroke-linejoin:round;stroke-opacity:1;paint-order:fill markers stroke"
     id="rect6-0"
     width="15.173752"
     height="48.998512"
     x="28.922697"
     y="149.12047"
     ry="7.6540179"
     inkscape:label="leg" />
  <rect
     style="fill:#9d8575;fill-opacity:1;fill-rule:evenodd;stroke:none;stroke-width:1.5;stroke-linecap:round;stroke-linejoin:round;stroke-opacity:1;paint-order:fill markers stroke"
     id="rect6-0-1"
     width="15.173752"
     height="48.998512"
     x="60.236351"
     y="138.11897"
     ry="7.6540179"
     inkscape:label="leg" />
  <rect
     style="fill:#ffd8be;fill-opacity:1;fill-rule:evenodd;stroke:none;stroke-width:1.5;stroke-linecap:round;stroke-linejoin:round;stroke-opacity:1;paint-order:fill markers stroke"
     id="rect2"
     width="16.499756"
     height="8.869422"
     x="41.750118"
     y="43.684265"
     inkscape:label="neck" />
  <path
     id="path1"
     style="fill:#ffd8be;fill-opacity:1;fill-rule:evenodd;stroke:none;stroke-width:1.5;stroke-linecap:round;stroke-linejoin:round;stroke-opacity:1;paint-order:fill markers stroke"
     inkscape:label="head"
     d="m 62.589973,14.35933 c -18.659197,0 -25.674369,2.270853 -34.154504,16.928683 3.389953,8.975244 11.971025,14.924069 21.565092,14.949992 12.768114,-1.82e-4 23.118589,-10.350889 23.118485,-23.119003 v -0.0026 c -0.01645,-3.006653 -0.619226,-5.981227 -1.774569,-8.757089 z"
     sodipodi:nodetypes="sccsscs" />
  <path
     id="rect3"
     style="fill:#180918;fill-rule:evenodd;stroke-width:1.5;stroke-linecap:round;stroke-linejoin:round;paint-order:fill markers stroke"
     inkscape:label="body"
     d="m 41.750418,46.238005 c -11.642901,0 -21.016288,7.628618 -21.016288,17.104899 0,19.523145 4.066308,39.336866 0,58.569556 h 21.74906 7.516854 29.265914 c -4.066308,-19.23269 0,-39.046411 0,-58.569556 0,-9.476281 -9.373387,-17.104899 -21.016289,-17.104899 h -8.249625 -4.124813 z" />
  <path
     style="fill:#000000;fill-opacity:1;fill-rule:evenodd;stroke:none;stroke-width:1.64663;stroke-linecap:round;stroke-linejoin:round;stroke-opacity:1;paint-order:fill markers stroke"
     d="M 20.733986,121.91265 0,166.58165 h 100 l -20.733993,-44.669 H 20.733986"
     id="path5"
     sodipodi:nodetypes="ccccc"
     inkscape:label="skirt" />
  <path
     id="path6"
     style="display:inline;fill:#000000;fill-opacity:1;fill-rule:evenodd;stroke:none;stroke-width:1.5;stroke-linecap:round;stroke-linejoin:round;stroke-opacity:1;paint-order:fill markers stroke"
     d="M 50.057798,-1.0031296e-8 C 44.084056,-1.0031296e-8 42.785549,0.94784919 40.183981,2.2153685 -13.419039,28.331486 17.002486,54.260272 14.602721,78.45826 11.95785,105.12777 18.714632,48.121945 28.396711,31.352092 36.894395,16.633671 43.902252,14.359097 62.590089,14.359097 l 8.754388,2.16e-4 C 67.725834,5.0179041 58.298057,-1.0031296e-8 50.059865,-1.0031296e-8 Z"
     inkscape:label="Hair"
     sodipodi:nodetypes="ssssccss" />
</svg>
